<svg width="20" height="18" viewBox="0 0 20 18" fill="none" xmlns="http://www.w3.org/2000/svg">
<path d="M18.572 0.0126093C18.2396 -0.0226408 17.8784 0.0292655 17.5154 0.172766C17.0654 0.349766 10.0142 3.31592 3.44116 6.08292L1.26929 6.99698C0.428287 7.33798 0.00366211 7.89256 0.00366211 8.63956C0.00366211 9.16256 0.225006 9.87195 1.28101 10.29L4.94702 11.7587C5.26402 12.7097 6.0003 14.9178 6.1853 15.5048C6.2953 15.8528 6.57315 16.7295 7.27515 16.9345C7.41915 16.9835 7.56941 17.0087 7.72241 17.0087C8.16541 17.0087 8.48438 16.8025 8.64038 16.6825L10.9705 14.7118L13.8005 17.329C13.9095 17.44 14.4865 18.0009 15.2615 18.0009C16.2285 18.0009 16.962 17.1959 17.115 16.4169C17.198 15.9899 19.9275 2.28795 19.9275 2.28995C20.1725 1.19095 19.732 0.620844 19.449 0.377844C19.2065 0.170344 18.9044 0.0478593 18.572 0.0126093ZM17.9099 2.17277C17.5329 4.06277 15.4778 14.3791 15.1658 15.8661L11.0291 12.04L8.22241 14.4169L8.99976 11.3759C8.99976 11.3759 14.3623 5.94775 14.6853 5.63175C14.9453 5.37875 14.9998 5.29006 14.9998 5.20206C14.9998 5.08506 14.9395 5.00089 14.8005 5.00089C14.6755 5.00089 14.5058 5.12067 14.4158 5.17667C13.2724 5.88949 8.40385 8.66313 6.00757 10.0263L2.53101 8.63761L4.21851 7.92863C8.51751 6.11863 16.1739 2.89477 17.9099 2.17277Z" fill="white"/>
</svg>
