<svg width="1300" height="448" viewBox="0 0 1300 448" fill="none" xmlns="http://www.w3.org/2000/svg">
<rect y="223" width="1300" height="2" fill="#071C35"/>
<circle cx="1092" cy="224" r="8" fill="#071C35"/>
<rect x="1091" y="193" width="2" height="30" fill="#071C35"/>
<circle cx="871" cy="224" r="8" fill="#071C35"/>
<rect x="870" y="225" width="2" height="30" fill="#071C35"/>
<circle cx="650" cy="224" r="8" fill="#071C35"/>
<rect x="649" y="193" width="2" height="30" fill="#071C35"/>
<circle cx="431" cy="224" r="8" fill="#071C35"/>
<rect x="430" y="225" width="2" height="30" fill="#071C35"/>
<circle cx="211" cy="224" r="8" fill="#071C35"/>
<rect x="210" y="193" width="2" height="30" fill="#071C35"/>
<path fill-rule="evenodd" clip-rule="evenodd" d="M1060.05 21.4956C1053.56 29.2404 1050.45 38.5441 1049.58 44.7291L1048.42 44.5652C1049.31 38.2012 1052.5 28.6813 1059.15 20.7399C1065.82 12.7793 1075.98 6.41187 1090.76 6.41187C1105.55 6.41187 1115.8 12.7785 1122.59 20.7358C1129.37 28.6749 1132.7 38.1928 1133.7 44.5564L1132.54 44.738C1131.57 38.5525 1128.31 29.2468 1121.7 21.4997C1115.1 13.7707 1105.16 7.58834 1090.76 7.58834C1076.37 7.58834 1066.53 13.7699 1060.05 21.4956ZM1086.03 24.5807C1087.23 25.7607 1088.28 27.0187 1088.88 27.8236L1087.94 28.5295C1087.37 27.7658 1086.36 26.5533 1085.21 25.4195C1084.04 24.2719 1082.78 23.265 1081.72 22.8404L1082.16 21.7481C1083.45 22.2646 1084.84 23.4145 1086.03 24.5807ZM1100.47 22.805C1097.29 24.6211 1095.36 27.3504 1094.82 28.4396L1093.77 27.9135C1094.4 26.6498 1096.47 23.732 1099.88 21.7835L1100.47 22.805ZM1082.4 28.9233C1084.87 30.5812 1087.3 32.4149 1088.78 33.5996L1088.04 34.5183C1086.58 33.35 1084.19 31.5366 1081.75 29.9004C1079.28 28.248 1076.85 26.8308 1075.31 26.3892L1075.63 25.258C1077.38 25.7577 1079.95 27.2816 1082.4 28.9233ZM1106.27 26.3727C1100.27 28.6821 1096.07 32.728 1094.76 34.4201L1093.83 33.6978C1095.26 31.8604 1099.62 27.671 1105.85 25.2746L1106.27 26.3727ZM1090.18 66.4386C1087.43 66.6941 1086.29 68.7168 1086.07 69.8259L1086.06 69.883V103.471C1086.06 105.115 1086.88 106.174 1087.88 106.795C1088.86 107.396 1090 107.588 1090.76 107.588C1094.42 107.588 1095.82 104.943 1096.05 103.567L1096.06 103.519V69.828L1096.02 69.7228C1095.59 68.6611 1094.11 66.6886 1091.35 66.4382V28.1766H1090.18V66.4386ZM1064.83 33.4733C1074.89 32.5151 1084.94 37.0534 1088.73 39.4439L1088.1 40.4386C1084.43 38.1232 1074.64 33.7204 1064.94 34.6445L1064.83 33.4733ZM1116.65 34.6472C1105 34.6472 1097.09 38.5336 1094.65 40.4075L1093.94 39.475C1096.6 37.4273 1104.77 33.4707 1116.65 33.4707V34.6472ZM1106.87 41.4826C1101.7 41.9887 1097.16 43.7263 1094.58 45.1614L1094.01 44.1329C1096.72 42.6268 1101.41 40.835 1106.75 40.3117C1112.09 39.788 1118.13 40.5318 1123.45 44.1611L1122.79 45.1332C1117.76 41.7037 1112.02 40.9769 1106.87 41.4826ZM1075.08 40.5612C1080.6 41.0483 1085.67 42.7163 1088.66 44.1141L1088.16 45.1802C1085.28 43.8329 1080.34 42.2068 1074.98 41.7331C1069.61 41.259 1063.89 41.9456 1059.34 45.1291L1058.66 44.1653C1063.53 40.7605 1069.57 40.0745 1075.08 40.5612ZM1107.97 48.5987C1102.51 47.9294 1097.45 48.8566 1094.49 49.9074L1094.1 48.7987C1097.21 47.6926 1102.45 46.7375 1108.12 47.4309C1113.79 48.1257 1119.92 50.4805 1124.74 56.0259L1123.85 56.7979C1119.26 51.5197 1113.43 49.2667 1107.97 48.5987ZM1056.23 55.9959C1067.28 44.9485 1082.42 46.6015 1088.61 48.7987L1088.22 49.9074C1082.25 47.7909 1067.66 46.2282 1057.06 56.8278L1056.23 55.9959ZM1073.87 54.1834C1079.51 52.6122 1085.04 52.1949 1088.43 52.2945L1088.39 53.4704C1085.11 53.374 1079.7 53.7801 1074.19 55.3168C1068.66 56.8554 1063.11 59.5073 1059.45 63.8496L1058.55 63.0918C1062.42 58.4929 1068.24 55.7526 1073.87 54.1834ZM1107.77 55.5639C1102.5 53.993 1097.38 53.4707 1094.29 53.4707V52.2942C1097.48 52.2942 1102.72 52.8308 1108.11 54.4363C1113.49 56.0401 1119.1 58.7295 1122.97 63.0799L1122.09 63.8615C1118.43 59.7412 1113.05 57.1366 1107.77 55.5639ZM1049.59 54.5929C1051.9 79.623 1073.34 89.3824 1083.8 91.1258L1083.61 92.2862C1072.89 90.5002 1050.8 80.4949 1048.41 54.7014L1049.59 54.5929ZM1133.12 54.7014C1130.73 80.4949 1108.64 90.5002 1097.92 92.2862L1097.73 91.1258C1108.19 89.3824 1129.63 79.623 1131.94 54.5929L1133.12 54.7014ZM1116.8 70.923C1108.44 61.631 1098.22 58.5535 1094.24 58.1739L1094.35 57.0028C1098.6 57.4075 1109.09 60.6045 1117.67 70.136L1116.8 70.923ZM1064.43 70.1506C1072.09 61.0612 1083.54 57.6047 1088.34 57.0046L1088.48 58.172C1083.87 58.7485 1072.74 62.1154 1065.33 70.9084L1064.43 70.1506ZM1069.74 77.1948C1078.25 67.7395 1085.54 63.3575 1088.2 62.3334L1088.62 63.4315C1086.19 64.3682 1079.05 68.6136 1070.61 77.9818L1069.74 77.1948ZM1112.08 77.9672C1104.61 69.0919 1096.92 64.5655 1094.08 63.4286L1094.51 62.3363C1097.55 63.5524 1105.39 68.2024 1112.98 77.2094L1112.08 77.9672ZM1087.24 70.0038V103.471C1087.24 104.65 1087.79 105.355 1088.5 105.794C1089.24 106.251 1090.16 106.412 1090.76 106.412C1093.65 106.412 1094.7 104.413 1094.88 103.419V70.0614C1094.49 69.2034 1093.19 67.5883 1090.76 67.5883C1088.34 67.5883 1087.42 69.207 1087.24 70.0038ZM1090.18 103.471V70.5295H1091.35V103.471H1090.18Z" fill="#071C35"/>
<path d="M1019.78 135.48C1020.4 135.48 1020.96 135.393 1021.45 135.22C1021.94 135.047 1022.36 134.807 1022.7 134.5C1023.05 134.193 1023.31 133.833 1023.49 133.42C1023.68 133 1023.77 132.543 1023.77 132.05C1023.77 130.963 1023.44 130.127 1022.77 129.54C1022.1 128.953 1021.11 128.66 1019.78 128.66H1017.15V135.48H1019.78ZM1019.78 127.85C1021.44 127.85 1022.69 128.213 1023.53 128.94C1024.38 129.667 1024.8 130.703 1024.8 132.05C1024.8 132.67 1024.68 133.24 1024.45 133.76C1024.22 134.28 1023.88 134.73 1023.45 135.11C1023.02 135.483 1022.49 135.777 1021.87 135.99C1021.25 136.197 1020.55 136.3 1019.78 136.3H1017.15V142H1016.12V127.85H1019.78ZM1034.34 136.86L1031.46 129.71C1031.36 129.477 1031.26 129.197 1031.17 128.87C1031.13 129.03 1031.08 129.183 1031.04 129.33C1030.99 129.47 1030.94 129.6 1030.89 129.72L1028.01 136.86H1034.34ZM1037.47 142H1036.68C1036.58 142 1036.51 141.977 1036.45 141.93C1036.39 141.877 1036.34 141.81 1036.31 141.73L1034.65 137.62H1027.7L1026.04 141.73C1026.01 141.803 1025.96 141.867 1025.9 141.92C1025.83 141.973 1025.75 142 1025.66 142H1024.88L1030.67 127.85H1031.68L1037.47 142ZM1047.54 141.13V142H1039.81V127.85H1040.84V141.13H1047.54ZM1063.91 127.85V142H1063.02V129.94C1063.02 129.767 1063.03 129.583 1063.05 129.39L1057.48 139.28C1057.38 139.453 1057.25 139.54 1057.08 139.54H1056.92C1056.74 139.54 1056.61 139.453 1056.52 139.28L1050.8 129.37C1050.82 129.57 1050.83 129.76 1050.83 129.94V142H1049.93V127.85H1050.64C1050.73 127.85 1050.8 127.86 1050.86 127.88C1050.91 127.9 1050.96 127.953 1051.02 128.04L1056.73 137.88C1056.83 138.067 1056.91 138.267 1056.99 138.48C1057.03 138.373 1057.07 138.27 1057.12 138.17C1057.16 138.063 1057.21 137.963 1057.27 137.87L1062.82 128.04C1062.87 127.953 1062.92 127.9 1062.98 127.88C1063.04 127.86 1063.11 127.85 1063.21 127.85H1063.91ZM1077.17 137.28C1077.17 138.073 1077.07 138.773 1076.88 139.38C1076.68 139.987 1076.4 140.497 1076.04 140.91C1075.67 141.323 1075.23 141.637 1074.71 141.85C1074.19 142.057 1073.6 142.16 1072.95 142.16C1072.65 142.16 1072.34 142.137 1072.04 142.09C1071.73 142.043 1071.41 141.97 1071.09 141.87C1071.09 141.777 1071.1 141.683 1071.11 141.59C1071.12 141.497 1071.13 141.403 1071.15 141.31C1071.16 141.25 1071.18 141.197 1071.22 141.15C1071.26 141.103 1071.32 141.08 1071.42 141.08C1071.48 141.08 1071.55 141.093 1071.63 141.12C1071.71 141.14 1071.81 141.163 1071.93 141.19C1072.04 141.217 1072.17 141.243 1072.33 141.27C1072.48 141.29 1072.66 141.3 1072.86 141.3C1073.36 141.3 1073.82 141.22 1074.23 141.06C1074.63 140.9 1074.98 140.657 1075.27 140.33C1075.55 139.997 1075.77 139.58 1075.92 139.08C1076.07 138.573 1076.15 137.98 1076.15 137.3V127.85H1077.17V137.28ZM1086.38 141.27C1087.06 141.27 1087.66 141.153 1088.2 140.92C1088.74 140.68 1089.19 140.35 1089.57 139.93C1089.94 139.51 1090.22 139.017 1090.42 138.45C1090.62 137.877 1090.72 137.26 1090.72 136.6V127.85H1091.74V136.6C1091.74 137.38 1091.61 138.11 1091.37 138.79C1091.12 139.463 1090.76 140.053 1090.3 140.56C1089.84 141.06 1089.27 141.453 1088.61 141.74C1087.95 142.027 1087.2 142.17 1086.38 142.17C1085.55 142.17 1084.8 142.027 1084.14 141.74C1083.48 141.453 1082.91 141.06 1082.45 140.56C1081.99 140.053 1081.63 139.463 1081.39 138.79C1081.14 138.11 1081.02 137.38 1081.02 136.6V127.85H1082.05V136.59C1082.05 137.25 1082.14 137.867 1082.34 138.44C1082.54 139.007 1082.82 139.5 1083.19 139.92C1083.56 140.34 1084.01 140.67 1084.55 140.91C1085.09 141.15 1085.7 141.27 1086.38 141.27ZM1109.71 127.85V142H1108.82V129.94C1108.82 129.767 1108.83 129.583 1108.85 129.39L1103.28 139.28C1103.19 139.453 1103.05 139.54 1102.88 139.54H1102.72C1102.55 139.54 1102.41 139.453 1102.32 139.28L1096.6 129.37C1096.62 129.57 1096.63 129.76 1096.63 129.94V142H1095.73V127.85H1096.44C1096.53 127.85 1096.61 127.86 1096.66 127.88C1096.71 127.9 1096.77 127.953 1096.82 128.04L1102.53 137.88C1102.63 138.067 1102.72 138.267 1102.79 138.48C1102.83 138.373 1102.87 138.27 1102.92 138.17C1102.97 138.063 1103.02 137.963 1103.07 137.87L1108.62 128.04C1108.67 127.953 1108.73 127.9 1108.78 127.88C1108.84 127.86 1108.92 127.85 1109.01 127.85H1109.71ZM1122.39 141.15L1122.37 142H1113.89V127.85H1122.37V128.7H1114.92V134.42H1121.12V135.25H1114.92V141.15H1122.39ZM1126.52 142H1125.49V127.85H1126.52V142ZM1134.19 134.84C1134.82 134.84 1135.38 134.767 1135.87 134.62C1136.37 134.467 1136.79 134.25 1137.13 133.97C1137.48 133.69 1137.74 133.353 1137.92 132.96C1138.1 132.567 1138.19 132.123 1138.19 131.63C1138.19 130.623 1137.86 129.877 1137.2 129.39C1136.55 128.903 1135.59 128.66 1134.33 128.66H1131.74V134.84H1134.19ZM1140.47 142H1139.59C1139.48 142 1139.38 141.983 1139.3 141.95C1139.23 141.91 1139.16 141.84 1139.09 141.74L1134.55 136C1134.5 135.927 1134.44 135.863 1134.38 135.81C1134.33 135.757 1134.26 135.717 1134.19 135.69C1134.12 135.657 1134.04 135.633 1133.94 135.62C1133.85 135.607 1133.73 135.6 1133.59 135.6H1131.74V142H1130.71V127.85H1134.33C1135.96 127.85 1137.17 128.167 1137.98 128.8C1138.79 129.427 1139.2 130.35 1139.2 131.57C1139.2 132.11 1139.11 132.603 1138.92 133.05C1138.73 133.497 1138.46 133.89 1138.11 134.23C1137.76 134.563 1137.34 134.837 1136.84 135.05C1136.35 135.263 1135.79 135.407 1135.17 135.48C1135.33 135.58 1135.47 135.713 1135.6 135.88L1140.47 142ZM1150.49 136.86L1147.61 129.71C1147.51 129.477 1147.41 129.197 1147.32 128.87C1147.28 129.03 1147.23 129.183 1147.19 129.33C1147.14 129.47 1147.09 129.6 1147.04 129.72L1144.16 136.86H1150.49ZM1153.62 142H1152.83C1152.73 142 1152.66 141.977 1152.6 141.93C1152.54 141.877 1152.49 141.81 1152.46 141.73L1150.8 137.62H1143.85L1142.19 141.73C1142.16 141.803 1142.11 141.867 1142.05 141.92C1141.98 141.973 1141.9 142 1141.81 142H1141.03L1146.82 127.85H1147.83L1153.62 142ZM1166.88 127.85V142H1165.85V135.22H1156.99V142H1155.96V127.85H1156.99V134.45H1165.85V127.85H1166.88Z" fill="#777777"/>
<path d="M1056.32 162.325C1056.46 161.345 1056.73 160.48 1057.13 159.73C1057.53 158.97 1058.04 158.335 1058.65 157.825C1059.27 157.315 1059.97 156.93 1060.76 156.67C1061.56 156.4 1062.42 156.265 1063.34 156.265C1064.25 156.265 1065.09 156.395 1065.86 156.655C1066.63 156.915 1067.29 157.285 1067.84 157.765C1068.4 158.245 1068.84 158.825 1069.15 159.505C1069.46 160.185 1069.61 160.94 1069.61 161.77C1069.61 162.45 1069.52 163.06 1069.34 163.6C1069.17 164.13 1068.92 164.595 1068.59 164.995C1068.27 165.395 1067.88 165.735 1067.42 166.015C1066.96 166.295 1066.45 166.525 1065.88 166.705C1067.28 167.065 1068.33 167.685 1069.03 168.565C1069.74 169.435 1070.09 170.525 1070.09 171.835C1070.09 172.825 1069.9 173.715 1069.52 174.505C1069.15 175.295 1068.64 175.97 1067.99 176.53C1067.34 177.08 1066.58 177.505 1065.71 177.805C1064.85 178.095 1063.93 178.24 1062.94 178.24C1061.8 178.24 1060.82 178.1 1060.01 177.82C1059.2 177.53 1058.52 177.135 1057.96 176.635C1057.4 176.135 1056.94 175.545 1056.58 174.865C1056.22 174.175 1055.91 173.43 1055.66 172.63L1056.82 172.15C1057.12 172.02 1057.41 171.985 1057.69 172.045C1057.98 172.105 1058.19 172.27 1058.32 172.54C1058.45 172.82 1058.61 173.155 1058.8 173.545C1059 173.935 1059.27 174.31 1059.61 174.67C1059.95 175.03 1060.38 175.335 1060.9 175.585C1061.43 175.835 1062.1 175.96 1062.91 175.96C1063.66 175.96 1064.31 175.84 1064.87 175.6C1065.44 175.35 1065.91 175.03 1066.28 174.64C1066.66 174.25 1066.95 173.815 1067.14 173.335C1067.33 172.855 1067.42 172.38 1067.42 171.91C1067.42 171.33 1067.35 170.8 1067.2 170.32C1067.05 169.84 1066.77 169.425 1066.36 169.075C1065.95 168.725 1065.38 168.45 1064.66 168.25C1063.95 168.05 1063.04 167.95 1061.92 167.95V166.015C1062.84 166.005 1063.62 165.905 1064.26 165.715C1064.91 165.525 1065.43 165.265 1065.83 164.935C1066.24 164.605 1066.54 164.21 1066.72 163.75C1066.91 163.29 1067 162.78 1067 162.22C1067 161.6 1066.9 161.06 1066.7 160.6C1066.51 160.14 1066.25 159.76 1065.91 159.46C1065.57 159.16 1065.16 158.935 1064.69 158.785C1064.23 158.635 1063.73 158.56 1063.19 158.56C1062.65 158.56 1062.15 158.64 1061.68 158.8C1061.22 158.96 1060.81 159.185 1060.45 159.475C1060.1 159.755 1059.8 160.09 1059.56 160.48C1059.32 160.87 1059.15 161.3 1059.05 161.77C1058.92 162.12 1058.76 162.355 1058.56 162.475C1058.37 162.585 1058.09 162.615 1057.72 162.565L1056.32 162.325ZM1077.2 164.62C1078.32 164.38 1079.35 164.26 1080.29 164.26C1081.41 164.26 1082.4 164.425 1083.26 164.755C1084.12 165.085 1084.84 165.54 1085.41 166.12C1085.99 166.7 1086.42 167.385 1086.71 168.175C1087.01 168.965 1087.16 169.825 1087.16 170.755C1087.16 171.895 1086.96 172.925 1086.56 173.845C1086.17 174.765 1085.63 175.555 1084.93 176.215C1084.24 176.865 1083.42 177.365 1082.48 177.715C1081.54 178.065 1080.53 178.24 1079.44 178.24C1078.81 178.24 1078.2 178.175 1077.62 178.045C1077.04 177.925 1076.5 177.76 1075.99 177.55C1075.49 177.34 1075.02 177.1 1074.59 176.83C1074.16 176.56 1073.78 176.275 1073.45 175.975L1074.28 174.835C1074.46 174.575 1074.69 174.445 1074.98 174.445C1075.18 174.445 1075.41 174.525 1075.66 174.685C1075.91 174.835 1076.21 175.005 1076.57 175.195C1076.93 175.385 1077.35 175.56 1077.83 175.72C1078.32 175.87 1078.9 175.945 1079.57 175.945C1080.32 175.945 1081 175.825 1081.6 175.585C1082.2 175.345 1082.71 175.005 1083.14 174.565C1083.57 174.115 1083.9 173.58 1084.13 172.96C1084.36 172.34 1084.48 171.645 1084.48 170.875C1084.48 170.205 1084.38 169.6 1084.18 169.06C1083.99 168.52 1083.69 168.06 1083.29 167.68C1082.9 167.3 1082.41 167.005 1081.82 166.795C1081.23 166.585 1080.54 166.48 1079.75 166.48C1079.21 166.48 1078.65 166.525 1078.06 166.615C1077.48 166.705 1076.88 166.85 1076.27 167.05L1074.59 166.555L1076.32 156.505H1086.5V157.675C1086.5 158.055 1086.38 158.37 1086.14 158.62C1085.91 158.86 1085.51 158.98 1084.94 158.98H1078.19L1077.2 164.62ZM1105.92 163.67V178H1104.22V167.47C1104.22 167.33 1104.22 167.18 1104.23 167.02C1104.24 166.86 1104.25 166.697 1104.27 166.53L1099.35 175.49C1099.19 175.79 1098.96 175.94 1098.65 175.94H1098.37C1098.05 175.94 1097.82 175.79 1097.67 175.49L1092.65 166.49C1092.69 166.843 1092.71 167.17 1092.71 167.47V178H1091.01V163.67H1092.44C1092.61 163.67 1092.74 163.687 1092.84 163.72C1092.93 163.753 1093.02 163.847 1093.11 164L1098.06 172.82C1098.14 172.98 1098.21 173.147 1098.29 173.32C1098.37 173.493 1098.44 173.67 1098.51 173.85C1098.57 173.67 1098.64 173.493 1098.72 173.32C1098.79 173.14 1098.87 172.97 1098.96 172.81L1103.82 164C1103.9 163.847 1103.98 163.753 1104.08 163.72C1104.18 163.687 1104.31 163.67 1104.49 163.67H1105.92ZM1111.52 178H1109.58V163.67H1111.52V178ZM1126.8 163.67V178H1125.83C1125.67 178 1125.54 177.973 1125.44 177.92C1125.34 177.867 1125.24 177.777 1125.14 177.65L1116.85 166.85C1116.86 167.017 1116.87 167.18 1116.88 167.34C1116.88 167.5 1116.89 167.65 1116.89 167.79V178H1115.19V163.67H1116.19C1116.27 163.67 1116.35 163.677 1116.41 163.69C1116.47 163.697 1116.52 163.713 1116.57 163.74C1116.61 163.76 1116.66 163.793 1116.71 163.84C1116.75 163.88 1116.8 163.933 1116.86 164L1125.15 174.79C1125.13 174.617 1125.12 174.45 1125.11 174.29C1125.1 174.123 1125.1 173.967 1125.1 173.82V163.67H1126.8Z" fill="#071C35"/>
<g filter="url(#filter0_d_73_123)">
<path d="M876.848 370H885.333C888.727 361.758 889.576 347.98 889.576 342.121C889.576 310.121 869.778 292.02 859.879 286.97M876.848 370C879.758 363.212 880.889 348.586 881.091 342.121C881.091 319.35 869.595 303.022 859.879 294.132M876.848 370H859.879M859.879 294.132C856.975 291.476 854.231 289.483 852 288.182V309.394M859.879 294.132V286.97M859.879 270V286.97M859.879 370H852V361.515M859.879 370V353.03M859.879 299.697V309.394M859.879 309.394H852M859.879 309.394V332.424M852 309.394V320.909M859.879 332.424H852M859.879 332.424V353.03M852 332.424V342.727M852 332.424V320.909M859.879 353.03H852M852 353.03V361.515M852 353.03V342.727M852 361.515H856.242M852 342.727H856.242M852 320.909H856.242M864.727 305.758V366.364H872.606C874.02 363.737 876.848 355.212 876.848 342.121C876.848 325.758 869.576 311.818 864.727 305.758Z" stroke="#071C35" stroke-width="1.17647" shape-rendering="crispEdges"/>
</g>
<path d="M811.789 404.18C813.029 404.18 813.966 403.913 814.599 403.38C815.239 402.84 815.559 402.083 815.559 401.11C815.559 400.663 815.472 400.263 815.299 399.91C815.132 399.55 814.889 399.247 814.569 399C814.249 398.747 813.856 398.553 813.389 398.42C812.922 398.287 812.392 398.22 811.799 398.22H808.239V404.18H811.789ZM808.239 391.66V397.47H811.299C811.952 397.47 812.509 397.387 812.969 397.22C813.436 397.053 813.816 396.833 814.109 396.56C814.409 396.287 814.629 395.977 814.769 395.63C814.909 395.283 814.979 394.927 814.979 394.56C814.979 393.607 814.676 392.887 814.069 392.4C813.469 391.907 812.539 391.66 811.279 391.66H808.239ZM811.279 390.85C812.086 390.85 812.786 390.93 813.379 391.09C813.972 391.25 814.462 391.487 814.849 391.8C815.236 392.107 815.522 392.483 815.709 392.93C815.896 393.377 815.989 393.883 815.989 394.45C815.989 394.823 815.922 395.183 815.789 395.53C815.662 395.877 815.476 396.197 815.229 396.49C814.989 396.783 814.689 397.04 814.329 397.26C813.976 397.473 813.569 397.637 813.109 397.75C814.222 397.91 815.076 398.28 815.669 398.86C816.269 399.433 816.569 400.19 816.569 401.13C816.569 401.73 816.462 402.27 816.249 402.75C816.036 403.23 815.726 403.637 815.319 403.97C814.912 404.303 814.412 404.56 813.819 404.74C813.226 404.913 812.552 405 811.799 405H807.209V390.85H811.279ZM825.026 404.27C825.706 404.27 826.313 404.153 826.846 403.92C827.386 403.68 827.843 403.35 828.216 402.93C828.589 402.51 828.873 402.017 829.066 401.45C829.266 400.877 829.366 400.26 829.366 399.6V390.85H830.386V399.6C830.386 400.38 830.263 401.11 830.016 401.79C829.769 402.463 829.413 403.053 828.946 403.56C828.486 404.06 827.923 404.453 827.256 404.74C826.596 405.027 825.853 405.17 825.026 405.17C824.199 405.17 823.453 405.027 822.786 404.74C822.126 404.453 821.563 404.06 821.096 403.56C820.636 403.053 820.283 402.463 820.036 401.79C819.789 401.11 819.666 400.38 819.666 399.6V390.85H820.696V399.59C820.696 400.25 820.793 400.867 820.986 401.44C821.186 402.007 821.469 402.5 821.836 402.92C822.209 403.34 822.663 403.67 823.196 403.91C823.736 404.15 824.346 404.27 825.026 404.27ZM837.857 397.84C838.484 397.84 839.044 397.767 839.537 397.62C840.037 397.467 840.457 397.25 840.797 396.97C841.144 396.69 841.407 396.353 841.587 395.96C841.767 395.567 841.857 395.123 841.857 394.63C841.857 393.623 841.527 392.877 840.867 392.39C840.214 391.903 839.257 391.66 837.997 391.66H835.407V397.84H837.857ZM844.137 405H843.257C843.144 405 843.047 404.983 842.967 404.95C842.894 404.91 842.824 404.84 842.757 404.74L838.217 399C838.164 398.927 838.107 398.863 838.047 398.81C837.994 398.757 837.93 398.717 837.857 398.69C837.79 398.657 837.707 398.633 837.607 398.62C837.514 398.607 837.397 398.6 837.257 398.6H835.407V405H834.377V390.85H837.997C839.624 390.85 840.84 391.167 841.647 391.8C842.46 392.427 842.867 393.35 842.867 394.57C842.867 395.11 842.774 395.603 842.587 396.05C842.4 396.497 842.13 396.89 841.777 397.23C841.43 397.563 841.007 397.837 840.507 398.05C840.014 398.263 839.457 398.407 838.837 398.48C838.997 398.58 839.14 398.713 839.267 398.88L844.137 405ZM850.776 400.28C850.776 401.073 850.679 401.773 850.486 402.38C850.292 402.987 850.012 403.497 849.646 403.91C849.279 404.323 848.836 404.637 848.316 404.85C847.796 405.057 847.209 405.16 846.556 405.16C846.256 405.16 845.952 405.137 845.646 405.09C845.339 405.043 845.022 404.97 844.696 404.87C844.702 404.777 844.709 404.683 844.716 404.59C844.729 404.497 844.742 404.403 844.756 404.31C844.769 404.25 844.792 404.197 844.826 404.15C844.866 404.103 844.932 404.08 845.026 404.08C845.086 404.08 845.156 404.093 845.236 404.12C845.322 404.14 845.422 404.163 845.536 404.19C845.649 404.217 845.782 404.243 845.936 404.27C846.089 404.29 846.266 404.3 846.466 404.3C846.972 404.3 847.429 404.22 847.836 404.06C848.242 403.9 848.589 403.657 848.876 403.33C849.162 402.997 849.379 402.58 849.526 402.08C849.679 401.573 849.756 400.98 849.756 400.3V390.85H850.776V400.28ZM867.202 399.86L864.322 392.71C864.222 392.477 864.126 392.197 864.032 391.87C863.992 392.03 863.949 392.183 863.902 392.33C863.856 392.47 863.806 392.6 863.752 392.72L860.872 399.86H867.202ZM870.332 405H869.542C869.449 405 869.372 404.977 869.312 404.93C869.252 404.877 869.206 404.81 869.172 404.73L867.512 400.62H860.562L858.902 404.73C858.876 404.803 858.829 404.867 858.762 404.92C858.696 404.973 858.616 405 858.522 405H857.742L863.532 390.85H864.542L870.332 405ZM880.408 404.13V405H872.678V390.85H873.708V404.13H880.408ZM894.605 399.86L891.725 392.71C891.625 392.477 891.528 392.197 891.435 391.87C891.395 392.03 891.351 392.183 891.305 392.33C891.258 392.47 891.208 392.6 891.155 392.72L888.275 399.86H894.605ZM897.735 405H896.945C896.851 405 896.775 404.977 896.715 404.93C896.655 404.877 896.608 404.81 896.575 404.73L894.915 400.62H887.965L886.305 404.73C886.278 404.803 886.231 404.867 886.165 404.92C886.098 404.973 886.018 405 885.925 405H885.145L890.935 390.85H891.945L897.735 405ZM903.56 397.84C904.187 397.84 904.747 397.767 905.24 397.62C905.74 397.467 906.16 397.25 906.5 396.97C906.847 396.69 907.11 396.353 907.29 395.96C907.47 395.567 907.56 395.123 907.56 394.63C907.56 393.623 907.23 392.877 906.57 392.39C905.917 391.903 904.96 391.66 903.7 391.66H901.11V397.84H903.56ZM909.84 405H908.96C908.847 405 908.75 404.983 908.67 404.95C908.597 404.91 908.527 404.84 908.46 404.74L903.92 399C903.867 398.927 903.81 398.863 903.75 398.81C903.697 398.757 903.634 398.717 903.56 398.69C903.494 398.657 903.41 398.633 903.31 398.62C903.217 398.607 903.1 398.6 902.96 398.6H901.11V405H900.08V390.85H903.7C905.327 390.85 906.544 391.167 907.35 391.8C908.164 392.427 908.57 393.35 908.57 394.57C908.57 395.11 908.477 395.603 908.29 396.05C908.104 396.497 907.834 396.89 907.48 397.23C907.134 397.563 906.71 397.837 906.21 398.05C905.717 398.263 905.16 398.407 904.54 398.48C904.7 398.58 904.844 398.713 904.97 398.88L909.84 405ZM919.859 399.86L916.979 392.71C916.879 392.477 916.782 392.197 916.689 391.87C916.649 392.03 916.605 392.183 916.559 392.33C916.512 392.47 916.462 392.6 916.409 392.72L913.529 399.86H919.859ZM922.989 405H922.199C922.105 405 922.029 404.977 921.969 404.93C921.909 404.877 921.862 404.81 921.829 404.73L920.169 400.62H913.219L911.559 404.73C911.532 404.803 911.485 404.867 911.419 404.92C911.352 404.973 911.272 405 911.179 405H910.399L916.189 390.85H917.199L922.989 405ZM929.914 404.18C931.154 404.18 932.091 403.913 932.724 403.38C933.364 402.84 933.684 402.083 933.684 401.11C933.684 400.663 933.597 400.263 933.424 399.91C933.257 399.55 933.014 399.247 932.694 399C932.374 398.747 931.981 398.553 931.514 398.42C931.047 398.287 930.517 398.22 929.924 398.22H926.364V404.18H929.914ZM926.364 391.66V397.47H929.424C930.077 397.47 930.634 397.387 931.094 397.22C931.561 397.053 931.941 396.833 932.234 396.56C932.534 396.287 932.754 395.977 932.894 395.63C933.034 395.283 933.104 394.927 933.104 394.56C933.104 393.607 932.801 392.887 932.194 392.4C931.594 391.907 930.664 391.66 929.404 391.66H926.364ZM929.404 390.85C930.211 390.85 930.911 390.93 931.504 391.09C932.097 391.25 932.587 391.487 932.974 391.8C933.361 392.107 933.647 392.483 933.834 392.93C934.021 393.377 934.114 393.883 934.114 394.45C934.114 394.823 934.047 395.183 933.914 395.53C933.787 395.877 933.601 396.197 933.354 396.49C933.114 396.783 932.814 397.04 932.454 397.26C932.101 397.473 931.694 397.637 931.234 397.75C932.347 397.91 933.201 398.28 933.794 398.86C934.394 399.433 934.694 400.19 934.694 401.13C934.694 401.73 934.587 402.27 934.374 402.75C934.161 403.23 933.851 403.637 933.444 403.97C933.037 404.303 932.537 404.56 931.944 404.74C931.351 404.913 930.677 405 929.924 405H925.334V390.85H929.404Z" fill="#777777"/>
<path d="M835.321 425.325C835.461 424.345 835.731 423.48 836.131 422.73C836.531 421.97 837.036 421.335 837.646 420.825C838.266 420.315 838.971 419.93 839.761 419.67C840.561 419.4 841.421 419.265 842.341 419.265C843.251 419.265 844.091 419.395 844.861 419.655C845.631 419.915 846.291 420.285 846.841 420.765C847.401 421.245 847.836 421.825 848.146 422.505C848.456 423.185 848.611 423.94 848.611 424.77C848.611 425.45 848.521 426.06 848.341 426.6C848.171 427.13 847.921 427.595 847.591 427.995C847.271 428.395 846.881 428.735 846.421 429.015C845.961 429.295 845.446 429.525 844.876 429.705C846.276 430.065 847.326 430.685 848.026 431.565C848.736 432.435 849.091 433.525 849.091 434.835C849.091 435.825 848.901 436.715 848.521 437.505C848.151 438.295 847.641 438.97 846.991 439.53C846.341 440.08 845.581 440.505 844.711 440.805C843.851 441.095 842.926 441.24 841.936 441.24C840.796 441.24 839.821 441.1 839.011 440.82C838.201 440.53 837.516 440.135 836.956 439.635C836.396 439.135 835.936 438.545 835.576 437.865C835.216 437.175 834.911 436.43 834.661 435.63L835.816 435.15C836.116 435.02 836.406 434.985 836.686 435.045C836.976 435.105 837.186 435.27 837.316 435.54C837.446 435.82 837.606 436.155 837.796 436.545C837.996 436.935 838.266 437.31 838.606 437.67C838.946 438.03 839.376 438.335 839.896 438.585C840.426 438.835 841.096 438.96 841.906 438.96C842.656 438.96 843.311 438.84 843.871 438.6C844.441 438.35 844.911 438.03 845.281 437.64C845.661 437.25 845.946 436.815 846.136 436.335C846.326 435.855 846.421 435.38 846.421 434.91C846.421 434.33 846.346 433.8 846.196 433.32C846.046 432.84 845.766 432.425 845.356 432.075C844.946 431.725 844.381 431.45 843.661 431.25C842.951 431.05 842.036 430.95 840.916 430.95V429.015C841.836 429.005 842.616 428.905 843.256 428.715C843.906 428.525 844.431 428.265 844.831 427.935C845.241 427.605 845.536 427.21 845.716 426.75C845.906 426.29 846.001 425.78 846.001 425.22C846.001 424.6 845.901 424.06 845.701 423.6C845.511 423.14 845.246 422.76 844.906 422.46C844.566 422.16 844.161 421.935 843.691 421.785C843.231 421.635 842.731 421.56 842.191 421.56C841.651 421.56 841.146 421.64 840.676 421.8C840.216 421.96 839.806 422.185 839.446 422.475C839.096 422.755 838.801 423.09 838.561 423.48C838.321 423.87 838.151 424.3 838.051 424.77C837.921 425.12 837.756 425.355 837.556 425.475C837.366 425.585 837.086 425.615 836.716 425.565L835.321 425.325ZM867.273 430.26C867.273 432.14 867.068 433.77 866.658 435.15C866.258 436.52 865.708 437.655 865.008 438.555C864.308 439.455 863.478 440.125 862.518 440.565C861.568 441.005 860.548 441.225 859.458 441.225C858.358 441.225 857.333 441.005 856.383 440.565C855.443 440.125 854.623 439.455 853.923 438.555C853.223 437.655 852.673 436.52 852.273 435.15C851.873 433.77 851.673 432.14 851.673 430.26C851.673 428.38 851.873 426.75 852.273 425.37C852.673 423.99 853.223 422.85 853.923 421.95C854.623 421.04 855.443 420.365 856.383 419.925C857.333 419.485 858.358 419.265 859.458 419.265C860.548 419.265 861.568 419.485 862.518 419.925C863.478 420.365 864.308 421.04 865.008 421.95C865.708 422.85 866.258 423.99 866.658 425.37C867.068 426.75 867.273 428.38 867.273 430.26ZM864.498 430.26C864.498 428.62 864.358 427.245 864.078 426.135C863.808 425.015 863.438 424.115 862.968 423.435C862.508 422.755 861.973 422.27 861.363 421.98C860.753 421.68 860.118 421.53 859.458 421.53C858.798 421.53 858.163 421.68 857.553 421.98C856.943 422.27 856.408 422.755 855.948 423.435C855.488 424.115 855.118 425.015 854.838 426.135C854.568 427.245 854.433 428.62 854.433 430.26C854.433 431.9 854.568 433.275 854.838 434.385C855.118 435.495 855.488 436.39 855.948 437.07C856.408 437.75 856.943 438.24 857.553 438.54C858.163 438.83 858.798 438.975 859.458 438.975C860.118 438.975 860.753 438.83 861.363 438.54C861.973 438.24 862.508 437.75 862.968 437.07C863.438 436.39 863.808 435.495 864.078 434.385C864.358 433.275 864.498 431.9 864.498 430.26ZM884.916 426.67V441H883.216V430.47C883.216 430.33 883.219 430.18 883.226 430.02C883.239 429.86 883.252 429.697 883.266 429.53L878.346 438.49C878.192 438.79 877.959 438.94 877.646 438.94H877.366C877.052 438.94 876.819 438.79 876.666 438.49L871.646 429.49C871.686 429.843 871.706 430.17 871.706 430.47V441H870.006V426.67H871.436C871.609 426.67 871.742 426.687 871.836 426.72C871.929 426.753 872.019 426.847 872.106 427L877.056 435.82C877.136 435.98 877.212 436.147 877.286 436.32C877.366 436.493 877.439 436.67 877.506 436.85C877.572 436.67 877.642 436.493 877.716 436.32C877.789 436.14 877.869 435.97 877.956 435.81L882.816 427C882.896 426.847 882.982 426.753 883.076 426.72C883.176 426.687 883.312 426.67 883.486 426.67H884.916ZM890.52 441H888.58V426.67H890.52V441ZM905.795 426.67V441H904.825C904.672 441 904.542 440.973 904.435 440.92C904.335 440.867 904.235 440.777 904.135 440.65L895.845 429.85C895.859 430.017 895.869 430.18 895.875 430.34C895.882 430.5 895.885 430.65 895.885 430.79V441H894.185V426.67H895.185C895.272 426.67 895.345 426.677 895.405 426.69C895.465 426.697 895.519 426.713 895.565 426.74C895.612 426.76 895.659 426.793 895.705 426.84C895.752 426.88 895.802 426.933 895.855 427L904.145 437.79C904.132 437.617 904.119 437.45 904.105 437.29C904.099 437.123 904.095 436.967 904.095 436.82V426.67H905.795Z" fill="#071C35"/>
<path fill-rule="evenodd" clip-rule="evenodd" d="M648.776 14.5633H645.745V35.1693H642.109V54.5633H637.26V78.8057H632.412V100H633.588V79.9822H638.437V55.7398H646.957V75.1515H648.134V54.5633H643.285V36.3458H646.922V15.7398H651.806V29.697H652.982V24.8307H657.866V44.8663H654.23V55.1515H655.407V46.0428H661.503V64.2603H657.866V83.6364H659.043V65.4367H665.745V100H666.922V64.2603H662.679V44.8663H659.043V23.6542H652.982V14.5633H649.952V0H648.776V14.5633Z" fill="#071C35"/>
<path d="M596.748 134.18C597.988 134.18 598.925 133.913 599.558 133.38C600.198 132.84 600.518 132.083 600.518 131.11C600.518 130.663 600.431 130.263 600.258 129.91C600.091 129.55 599.848 129.247 599.528 129C599.208 128.747 598.815 128.553 598.348 128.42C597.881 128.287 597.351 128.22 596.758 128.22H593.198V134.18H596.748ZM593.198 121.66V127.47H596.258C596.911 127.47 597.468 127.387 597.928 127.22C598.395 127.053 598.775 126.833 599.068 126.56C599.368 126.287 599.588 125.977 599.728 125.63C599.868 125.283 599.938 124.927 599.938 124.56C599.938 123.607 599.635 122.887 599.028 122.4C598.428 121.907 597.498 121.66 596.238 121.66H593.198ZM596.238 120.85C597.045 120.85 597.745 120.93 598.338 121.09C598.931 121.25 599.421 121.487 599.808 121.8C600.195 122.107 600.481 122.483 600.668 122.93C600.855 123.377 600.948 123.883 600.948 124.45C600.948 124.823 600.881 125.183 600.748 125.53C600.621 125.877 600.435 126.197 600.188 126.49C599.948 126.783 599.648 127.04 599.288 127.26C598.935 127.473 598.528 127.637 598.068 127.75C599.181 127.91 600.035 128.28 600.628 128.86C601.228 129.433 601.528 130.19 601.528 131.13C601.528 131.73 601.421 132.27 601.208 132.75C600.995 133.23 600.685 133.637 600.278 133.97C599.871 134.303 599.371 134.56 598.778 134.74C598.185 134.913 597.511 135 596.758 135H592.168V120.85H596.238ZM609.985 134.27C610.665 134.27 611.272 134.153 611.805 133.92C612.345 133.68 612.802 133.35 613.175 132.93C613.548 132.51 613.832 132.017 614.025 131.45C614.225 130.877 614.325 130.26 614.325 129.6V120.85H615.345V129.6C615.345 130.38 615.222 131.11 614.975 131.79C614.728 132.463 614.372 133.053 613.905 133.56C613.445 134.06 612.882 134.453 612.215 134.74C611.555 135.027 610.812 135.17 609.985 135.17C609.158 135.17 608.412 135.027 607.745 134.74C607.085 134.453 606.522 134.06 606.055 133.56C605.595 133.053 605.242 132.463 604.995 131.79C604.748 131.11 604.625 130.38 604.625 129.6V120.85H605.655V129.59C605.655 130.25 605.752 130.867 605.945 131.44C606.145 132.007 606.428 132.5 606.795 132.92C607.168 133.34 607.622 133.67 608.155 133.91C608.695 134.15 609.305 134.27 609.985 134.27ZM622.816 127.84C623.443 127.84 624.003 127.767 624.496 127.62C624.996 127.467 625.416 127.25 625.756 126.97C626.103 126.69 626.366 126.353 626.546 125.96C626.726 125.567 626.816 125.123 626.816 124.63C626.816 123.623 626.486 122.877 625.826 122.39C625.173 121.903 624.216 121.66 622.956 121.66H620.366V127.84H622.816ZM629.096 135H628.216C628.103 135 628.006 134.983 627.926 134.95C627.853 134.91 627.783 134.84 627.716 134.74L623.176 129C623.123 128.927 623.066 128.863 623.006 128.81C622.953 128.757 622.889 128.717 622.816 128.69C622.749 128.657 622.666 128.633 622.566 128.62C622.473 128.607 622.356 128.6 622.216 128.6H620.366V135H619.336V120.85H622.956C624.583 120.85 625.799 121.167 626.606 121.8C627.419 122.427 627.826 123.35 627.826 124.57C627.826 125.11 627.733 125.603 627.546 126.05C627.359 126.497 627.089 126.89 626.736 127.23C626.389 127.563 625.966 127.837 625.466 128.05C624.973 128.263 624.416 128.407 623.796 128.48C623.956 128.58 624.099 128.713 624.226 128.88L629.096 135ZM635.735 130.28C635.735 131.073 635.638 131.773 635.445 132.38C635.251 132.987 634.971 133.497 634.605 133.91C634.238 134.323 633.795 134.637 633.275 134.85C632.755 135.057 632.168 135.16 631.515 135.16C631.215 135.16 630.911 135.137 630.605 135.09C630.298 135.043 629.981 134.97 629.655 134.87C629.661 134.777 629.668 134.683 629.675 134.59C629.688 134.497 629.701 134.403 629.715 134.31C629.728 134.25 629.751 134.197 629.785 134.15C629.825 134.103 629.891 134.08 629.985 134.08C630.045 134.08 630.115 134.093 630.195 134.12C630.281 134.14 630.381 134.163 630.495 134.19C630.608 134.217 630.741 134.243 630.895 134.27C631.048 134.29 631.225 134.3 631.425 134.3C631.931 134.3 632.388 134.22 632.795 134.06C633.201 133.9 633.548 133.657 633.835 133.33C634.121 132.997 634.338 132.58 634.485 132.08C634.638 131.573 634.715 130.98 634.715 130.3V120.85H635.735V130.28ZM656.115 120.85V135H655.085V128.22H646.225V135H645.195V120.85H646.225V127.45H655.085V120.85H656.115ZM667.923 129.86L665.043 122.71C664.943 122.477 664.846 122.197 664.753 121.87C664.713 122.03 664.67 122.183 664.623 122.33C664.576 122.47 664.526 122.6 664.473 122.72L661.593 129.86H667.923ZM671.053 135H670.263C670.17 135 670.093 134.977 670.033 134.93C669.973 134.877 669.926 134.81 669.893 134.73L668.233 130.62H661.283L659.623 134.73C659.596 134.803 659.55 134.867 659.483 134.92C659.416 134.973 659.336 135 659.243 135H658.463L664.253 120.85H665.263L671.053 135ZM681.129 134.13V135H673.399V120.85H674.429V134.13H681.129ZM684.546 135H683.516V120.85H684.546V135ZM689.761 121.7V127.65H696.211V128.5H689.761V135H688.731V120.85H697.211V121.7H689.761ZM706.536 129.86L703.656 122.71C703.556 122.477 703.46 122.197 703.366 121.87C703.326 122.03 703.283 122.183 703.236 122.33C703.19 122.47 703.14 122.6 703.086 122.72L700.206 129.86H706.536ZM709.666 135H708.876C708.783 135 708.706 134.977 708.646 134.93C708.586 134.877 708.54 134.81 708.506 134.73L706.846 130.62H699.896L698.236 134.73C698.21 134.803 698.163 134.867 698.096 134.92C698.03 134.973 697.95 135 697.856 135H697.076L702.866 120.85H703.876L709.666 135Z" fill="#777777"/>
<path d="M627.676 168.465C627.966 168.465 628.196 168.55 628.366 168.72C628.536 168.89 628.621 169.11 628.621 169.38V171H614.281V170.085C614.281 169.895 614.321 169.7 614.401 169.5C614.481 169.3 614.606 169.115 614.776 168.945L621.661 162.03C622.231 161.45 622.751 160.895 623.221 160.365C623.691 159.825 624.091 159.285 624.421 158.745C624.751 158.205 625.006 157.66 625.186 157.11C625.366 156.55 625.456 155.955 625.456 155.325C625.456 154.695 625.356 154.145 625.156 153.675C624.956 153.195 624.681 152.8 624.331 152.49C623.991 152.18 623.586 151.95 623.116 151.8C622.646 151.64 622.141 151.56 621.601 151.56C621.051 151.56 620.546 151.64 620.086 151.8C619.626 151.96 619.216 152.185 618.856 152.475C618.506 152.755 618.211 153.09 617.971 153.48C617.731 153.87 617.561 154.3 617.461 154.77C617.341 155.12 617.176 155.355 616.966 155.475C616.766 155.585 616.481 155.615 616.111 155.565L614.716 155.325C614.856 154.345 615.126 153.48 615.526 152.73C615.936 151.97 616.446 151.335 617.056 150.825C617.676 150.315 618.381 149.93 619.171 149.67C619.961 149.4 620.816 149.265 621.736 149.265C622.646 149.265 623.496 149.4 624.286 149.67C625.076 149.94 625.761 150.335 626.341 150.855C626.921 151.365 627.376 151.99 627.706 152.73C628.036 153.47 628.201 154.31 628.201 155.25C628.201 156.05 628.081 156.795 627.841 157.485C627.601 158.165 627.276 158.815 626.866 159.435C626.456 160.055 625.981 160.66 625.441 161.25C624.911 161.84 624.346 162.435 623.746 163.035L618.076 168.825C618.476 168.715 618.881 168.63 619.291 168.57C619.701 168.5 620.096 168.465 620.476 168.465H627.676ZM646.773 160.26C646.773 162.14 646.568 163.77 646.158 165.15C645.758 166.52 645.208 167.655 644.508 168.555C643.808 169.455 642.978 170.125 642.018 170.565C641.068 171.005 640.048 171.225 638.958 171.225C637.858 171.225 636.833 171.005 635.883 170.565C634.943 170.125 634.123 169.455 633.423 168.555C632.723 167.655 632.173 166.52 631.773 165.15C631.373 163.77 631.173 162.14 631.173 160.26C631.173 158.38 631.373 156.75 631.773 155.37C632.173 153.99 632.723 152.85 633.423 151.95C634.123 151.04 634.943 150.365 635.883 149.925C636.833 149.485 637.858 149.265 638.958 149.265C640.048 149.265 641.068 149.485 642.018 149.925C642.978 150.365 643.808 151.04 644.508 151.95C645.208 152.85 645.758 153.99 646.158 155.37C646.568 156.75 646.773 158.38 646.773 160.26ZM643.998 160.26C643.998 158.62 643.858 157.245 643.578 156.135C643.308 155.015 642.938 154.115 642.468 153.435C642.008 152.755 641.473 152.27 640.863 151.98C640.253 151.68 639.618 151.53 638.958 151.53C638.298 151.53 637.663 151.68 637.053 151.98C636.443 152.27 635.908 152.755 635.448 153.435C634.988 154.115 634.618 155.015 634.338 156.135C634.068 157.245 633.933 158.62 633.933 160.26C633.933 161.9 634.068 163.275 634.338 164.385C634.618 165.495 634.988 166.39 635.448 167.07C635.908 167.75 636.443 168.24 637.053 168.54C637.663 168.83 638.298 168.975 638.958 168.975C639.618 168.975 640.253 168.83 640.863 168.54C641.473 168.24 642.008 167.75 642.468 167.07C642.938 166.39 643.308 165.495 643.578 164.385C643.858 163.275 643.998 161.9 643.998 160.26ZM664.416 156.67V171H662.716V160.47C662.716 160.33 662.719 160.18 662.726 160.02C662.739 159.86 662.752 159.697 662.766 159.53L657.846 168.49C657.692 168.79 657.459 168.94 657.146 168.94H656.866C656.552 168.94 656.319 168.79 656.166 168.49L651.146 159.49C651.186 159.843 651.206 160.17 651.206 160.47V171H649.506V156.67H650.936C651.109 156.67 651.242 156.687 651.336 156.72C651.429 156.753 651.519 156.847 651.606 157L656.556 165.82C656.636 165.98 656.712 166.147 656.786 166.32C656.866 166.493 656.939 166.67 657.006 166.85C657.072 166.67 657.142 166.493 657.216 166.32C657.289 166.14 657.369 165.97 657.456 165.81L662.316 157C662.396 156.847 662.482 156.753 662.576 156.72C662.676 156.687 662.812 156.67 662.986 156.67H664.416ZM670.02 171H668.08V156.67H670.02V171ZM685.295 156.67V171H684.325C684.172 171 684.042 170.973 683.935 170.92C683.835 170.867 683.735 170.777 683.635 170.65L675.345 159.85C675.359 160.017 675.369 160.18 675.375 160.34C675.382 160.5 675.385 160.65 675.385 160.79V171H673.685V156.67H674.685C674.772 156.67 674.845 156.677 674.905 156.69C674.965 156.697 675.019 156.713 675.065 156.74C675.112 156.76 675.159 156.793 675.205 156.84C675.252 156.88 675.302 156.933 675.355 157L683.645 167.79C683.632 167.617 683.619 167.45 683.605 167.29C683.599 167.123 683.595 166.967 683.595 166.82V156.67H685.295Z" fill="#071C35"/>
<g filter="url(#filter1_d_73_123)">
<path fill-rule="evenodd" clip-rule="evenodd" d="M451.956 283.597L415.009 320.465L412.444 331.218L421.108 326.64L458.7 289.696C459.445 288.574 460.432 286.84 461.016 285.231C461.312 284.413 461.491 283.662 461.5 283.055C461.508 282.447 461.348 282.077 461.072 281.871C460.747 281.627 460.201 281.493 459.437 281.5C458.687 281.507 457.804 281.648 456.879 281.871C455.07 282.307 453.176 283.04 451.956 283.597ZM414.402 319.658L426.338 307.747L404.105 292.387L408.671 287.18L439.522 294.591L451.376 282.763L451.457 282.725C452.714 282.146 454.715 281.364 456.644 280.899C457.608 280.666 458.573 280.508 459.428 280.5C460.268 280.493 461.083 280.63 461.671 281.07C462.309 281.547 462.51 282.302 462.5 283.069C462.489 283.837 462.268 284.709 461.956 285.572C461.328 287.303 460.278 289.135 459.504 290.294L459.475 290.337L449.911 299.736L454.481 334.655L449.266 339.209L434.441 314.94L423.653 325.541L424.203 341.025L418.849 343.696L414.285 331.376L410.958 333.133L411.803 329.592L397.122 322.031L403.004 316.814L414.402 319.658ZM412.042 328.59L413.954 320.577L403.273 317.912L398.878 321.81L412.042 328.59ZM415.177 330.905L419.399 342.304L423.18 340.417L422.686 326.491L421.705 327.456L415.177 330.905ZM435.173 314.22L449.501 337.676L453.42 334.254L449.018 300.614L435.173 314.22ZM438.692 295.42L409.024 288.294L405.597 292.203L427.058 307.029L438.692 295.42Z" fill="#071C35"/>
</g>
<path d="M399.722 392.86L396.842 385.71C396.742 385.477 396.645 385.197 396.552 384.87C396.512 385.03 396.469 385.183 396.422 385.33C396.375 385.47 396.325 385.6 396.272 385.72L393.392 392.86H399.722ZM402.852 398H402.062C401.969 398 401.892 397.977 401.832 397.93C401.772 397.877 401.725 397.81 401.692 397.73L400.032 393.62H393.082L391.422 397.73C391.395 397.803 391.349 397.867 391.282 397.92C391.215 397.973 391.135 398 391.042 398H390.262L396.052 383.85H397.062L402.852 398ZM406.227 398H405.197V383.85H406.227V398ZM413.892 390.84C414.519 390.84 415.079 390.767 415.572 390.62C416.072 390.467 416.492 390.25 416.832 389.97C417.179 389.69 417.442 389.353 417.622 388.96C417.802 388.567 417.892 388.123 417.892 387.63C417.892 386.623 417.562 385.877 416.902 385.39C416.249 384.903 415.292 384.66 414.032 384.66H411.442V390.84H413.892ZM420.172 398H419.292C419.179 398 419.082 397.983 419.002 397.95C418.929 397.91 418.859 397.84 418.792 397.74L414.252 392C414.199 391.927 414.142 391.863 414.082 391.81C414.029 391.757 413.966 391.717 413.892 391.69C413.826 391.657 413.742 391.633 413.642 391.62C413.549 391.607 413.432 391.6 413.292 391.6H411.442V398H410.412V383.85H414.032C415.659 383.85 416.876 384.167 417.682 384.8C418.496 385.427 418.902 386.35 418.902 387.57C418.902 388.11 418.809 388.603 418.622 389.05C418.436 389.497 418.166 389.89 417.812 390.23C417.466 390.563 417.042 390.837 416.542 391.05C416.049 391.263 415.492 391.407 414.872 391.48C415.032 391.58 415.176 391.713 415.302 391.88L420.172 398ZM426.221 391.48C426.841 391.48 427.397 391.393 427.891 391.22C428.384 391.047 428.801 390.807 429.141 390.5C429.487 390.193 429.751 389.833 429.931 389.42C430.117 389 430.211 388.543 430.211 388.05C430.211 386.963 429.877 386.127 429.211 385.54C428.544 384.953 427.547 384.66 426.221 384.66H423.591V391.48H426.221ZM426.221 383.85C427.881 383.85 429.131 384.213 429.971 384.94C430.817 385.667 431.241 386.703 431.241 388.05C431.241 388.67 431.124 389.24 430.891 389.76C430.657 390.28 430.324 390.73 429.891 391.11C429.457 391.483 428.931 391.777 428.311 391.99C427.691 392.197 426.994 392.3 426.221 392.3H423.591V398H422.561V383.85H426.221ZM446.693 390.92C446.693 392.013 446.53 393.007 446.203 393.9C445.877 394.787 445.417 395.547 444.823 396.18C444.23 396.807 443.517 397.293 442.683 397.64C441.857 397.98 440.943 398.15 439.943 398.15C438.943 398.15 438.03 397.98 437.203 397.64C436.377 397.293 435.667 396.807 435.073 396.18C434.48 395.547 434.02 394.787 433.693 393.9C433.367 393.007 433.203 392.013 433.203 390.92C433.203 389.833 433.367 388.847 433.693 387.96C434.02 387.067 434.48 386.307 435.073 385.68C435.667 385.047 436.377 384.557 437.203 384.21C438.03 383.863 438.943 383.69 439.943 383.69C440.943 383.69 441.857 383.863 442.683 384.21C443.517 384.55 444.23 385.037 444.823 385.67C445.417 386.303 445.877 387.067 446.203 387.96C446.53 388.847 446.693 389.833 446.693 390.92ZM445.633 390.92C445.633 389.933 445.497 389.047 445.223 388.26C444.95 387.473 444.563 386.807 444.063 386.26C443.563 385.713 442.963 385.297 442.263 385.01C441.563 384.717 440.79 384.57 439.943 384.57C439.103 384.57 438.333 384.717 437.633 385.01C436.933 385.297 436.33 385.713 435.823 386.26C435.323 386.807 434.933 387.473 434.653 388.26C434.38 389.047 434.243 389.933 434.243 390.92C434.243 391.913 434.38 392.803 434.653 393.59C434.933 394.37 435.323 395.033 435.823 395.58C436.33 396.127 436.933 396.543 437.633 396.83C438.333 397.117 439.103 397.26 439.943 397.26C440.79 397.26 441.563 397.117 442.263 396.83C442.963 396.543 443.563 396.127 444.063 395.58C444.563 395.033 444.95 394.37 445.223 393.59C445.497 392.803 445.633 391.913 445.633 390.92ZM453.424 390.84C454.05 390.84 454.61 390.767 455.104 390.62C455.604 390.467 456.024 390.25 456.364 389.97C456.71 389.69 456.974 389.353 457.154 388.96C457.334 388.567 457.424 388.123 457.424 387.63C457.424 386.623 457.094 385.877 456.434 385.39C455.78 384.903 454.824 384.66 453.564 384.66H450.974V390.84H453.424ZM459.704 398H458.824C458.71 398 458.614 397.983 458.534 397.95C458.46 397.91 458.39 397.84 458.324 397.74L453.784 392C453.73 391.927 453.674 391.863 453.614 391.81C453.56 391.757 453.497 391.717 453.424 391.69C453.357 391.657 453.274 391.633 453.174 391.62C453.08 391.607 452.964 391.6 452.824 391.6H450.974V398H449.944V383.85H453.564C455.19 383.85 456.407 384.167 457.214 384.8C458.027 385.427 458.434 386.35 458.434 387.57C458.434 388.11 458.34 388.603 458.154 389.05C457.967 389.497 457.697 389.89 457.344 390.23C456.997 390.563 456.574 390.837 456.074 391.05C455.58 391.263 455.024 391.407 454.404 391.48C454.564 391.58 454.707 391.713 454.834 391.88L459.704 398ZM470.706 384.72H465.736V398H464.706V384.72H459.706V383.85H470.706V384.72Z" fill="#777777"/>
<path d="M408.641 431.96V434H397.121V431.96H401.726V417.305C401.726 416.865 401.741 416.42 401.771 415.97L397.946 419.255C397.816 419.365 397.686 419.435 397.556 419.465C397.426 419.485 397.306 419.485 397.196 419.465C397.086 419.445 396.981 419.405 396.881 419.345C396.791 419.285 396.721 419.22 396.671 419.15L395.831 417.995L402.236 412.46H404.411V431.96H408.641ZM416.203 420.62C417.323 420.38 418.353 420.26 419.293 420.26C420.413 420.26 421.403 420.425 422.263 420.755C423.123 421.085 423.838 421.54 424.408 422.12C424.988 422.7 425.423 423.385 425.713 424.175C426.013 424.965 426.163 425.825 426.163 426.755C426.163 427.895 425.963 428.925 425.563 429.845C425.173 430.765 424.628 431.555 423.928 432.215C423.238 432.865 422.423 433.365 421.483 433.715C420.543 434.065 419.528 434.24 418.438 434.24C417.808 434.24 417.203 434.175 416.623 434.045C416.043 433.925 415.498 433.76 414.988 433.55C414.488 433.34 414.023 433.1 413.593 432.83C413.163 432.56 412.783 432.275 412.453 431.975L413.278 430.835C413.458 430.575 413.693 430.445 413.983 430.445C414.183 430.445 414.408 430.525 414.658 430.685C414.908 430.835 415.213 431.005 415.573 431.195C415.933 431.385 416.353 431.56 416.833 431.72C417.323 431.87 417.903 431.945 418.573 431.945C419.323 431.945 419.998 431.825 420.598 431.585C421.198 431.345 421.713 431.005 422.143 430.565C422.573 430.115 422.903 429.58 423.133 428.96C423.363 428.34 423.478 427.645 423.478 426.875C423.478 426.205 423.378 425.6 423.178 425.06C422.988 424.52 422.693 424.06 422.293 423.68C421.903 423.3 421.413 423.005 420.823 422.795C420.233 422.585 419.543 422.48 418.753 422.48C418.213 422.48 417.648 422.525 417.058 422.615C416.478 422.705 415.883 422.85 415.273 423.05L413.593 422.555L415.318 412.505H425.503V413.675C425.503 414.055 425.383 414.37 425.143 414.62C424.913 414.86 424.513 414.98 423.943 414.98H417.193L416.203 420.62ZM444.916 419.67V434H443.216V423.47C443.216 423.33 443.219 423.18 443.226 423.02C443.239 422.86 443.252 422.697 443.266 422.53L438.346 431.49C438.192 431.79 437.959 431.94 437.646 431.94H437.366C437.052 431.94 436.819 431.79 436.666 431.49L431.646 422.49C431.686 422.843 431.706 423.17 431.706 423.47V434H430.006V419.67H431.436C431.609 419.67 431.742 419.687 431.836 419.72C431.929 419.753 432.019 419.847 432.106 420L437.056 428.82C437.136 428.98 437.212 429.147 437.286 429.32C437.366 429.493 437.439 429.67 437.506 429.85C437.572 429.67 437.642 429.493 437.716 429.32C437.789 429.14 437.869 428.97 437.956 428.81L442.816 420C442.896 419.847 442.982 419.753 443.076 419.72C443.176 419.687 443.312 419.67 443.486 419.67H444.916ZM450.52 434H448.58V419.67H450.52V434ZM465.795 419.67V434H464.825C464.672 434 464.542 433.973 464.435 433.92C464.335 433.867 464.235 433.777 464.135 433.65L455.845 422.85C455.859 423.017 455.869 423.18 455.875 423.34C455.882 423.5 455.885 423.65 455.885 423.79V434H454.185V419.67H455.185C455.272 419.67 455.345 419.677 455.405 419.69C455.465 419.697 455.519 419.713 455.565 419.74C455.612 419.76 455.659 419.793 455.705 419.84C455.752 419.88 455.802 419.933 455.855 420L464.145 430.79C464.132 430.617 464.119 430.45 464.105 430.29C464.099 430.123 464.095 429.967 464.095 429.82V419.67H465.795Z" fill="#071C35"/>
<g filter="url(#filter2_d_73_123)">
<path fill-rule="evenodd" clip-rule="evenodd" d="M209.25 23.1693C208.6 23.5092 207.867 24.2635 207.268 25.5084C206.55 27.0014 206 29.2466 206 32.5C206 35.7559 206.551 38.1564 207.258 39.8432C207.876 41.3211 208.626 42.2766 209.25 42.76V57.5C209.25 68.3765 205.17 78.4933 200.044 86.736C194.918 94.9786 188.769 101.312 184.686 104.611L183.586 105.5H236.111L234.783 104.588C226.614 98.9771 210.25 81.6787 210.25 57.5V42.76C210.873 42.2766 211.623 41.3211 212.242 39.8432C212.949 38.1564 213.5 35.7559 213.5 32.5C213.5 29.2466 212.95 27.0014 212.232 25.5084C211.633 24.2635 210.9 23.5092 210.25 23.1693V10H209.25V23.1693ZM210.25 41.34V24.393C210.583 24.6993 210.97 25.1907 211.331 25.9416C211.967 27.2653 212.5 29.3534 212.5 32.5C212.5 35.6441 211.968 37.9103 211.32 39.4568C210.97 40.2915 210.591 40.9077 210.25 41.34ZM209.25 41.34V24.393C208.917 24.6993 208.53 25.1907 208.169 25.9416C207.533 27.2653 207 29.3534 207 32.5C207 35.6441 207.532 37.9103 208.18 39.4568C208.529 40.2915 208.909 40.9077 209.25 41.34ZM210.25 67.8896C213.753 85.9477 225.651 98.9833 232.954 104.5H210.25V67.8896ZM209.25 104.5V67.0628C207.712 74.507 204.556 81.374 200.893 87.264C196.132 94.9211 190.495 100.957 186.379 104.5H209.25Z" fill="#071C35"/>
</g>
<path d="M154.323 139.62C154.39 139.62 154.447 139.643 154.493 139.69L154.893 140.12C154.6 140.433 154.28 140.717 153.933 140.97C153.593 141.217 153.217 141.43 152.803 141.61C152.397 141.783 151.947 141.917 151.453 142.01C150.967 142.11 150.43 142.16 149.843 142.16C148.863 142.16 147.963 141.99 147.143 141.65C146.33 141.303 145.63 140.817 145.043 140.19C144.457 139.557 144 138.793 143.673 137.9C143.353 137.007 143.193 136.013 143.193 134.92C143.193 133.847 143.36 132.867 143.693 131.98C144.027 131.093 144.493 130.333 145.093 129.7C145.693 129.06 146.413 128.567 147.253 128.22C148.093 127.867 149.02 127.69 150.033 127.69C151 127.69 151.857 127.84 152.603 128.14C153.35 128.44 154.03 128.863 154.643 129.41L154.333 129.86C154.28 129.94 154.197 129.98 154.083 129.98C154.003 129.98 153.873 129.907 153.693 129.76C153.513 129.613 153.263 129.453 152.943 129.28C152.623 129.1 152.223 128.937 151.743 128.79C151.27 128.643 150.7 128.57 150.033 128.57C149.18 128.57 148.397 128.717 147.683 129.01C146.977 129.303 146.367 129.723 145.853 130.27C145.347 130.817 144.95 131.483 144.663 132.27C144.377 133.057 144.233 133.94 144.233 134.92C144.233 135.92 144.377 136.813 144.663 137.6C144.957 138.387 145.357 139.053 145.863 139.6C146.37 140.14 146.967 140.557 147.653 140.85C148.347 141.137 149.093 141.28 149.893 141.28C150.4 141.28 150.85 141.247 151.243 141.18C151.643 141.113 152.01 141.013 152.343 140.88C152.677 140.747 152.987 140.583 153.273 140.39C153.56 140.197 153.843 139.97 154.123 139.71C154.157 139.683 154.19 139.663 154.223 139.65C154.257 139.63 154.29 139.62 154.323 139.62ZM161.109 134.84C161.736 134.84 162.296 134.767 162.789 134.62C163.289 134.467 163.709 134.25 164.049 133.97C164.396 133.69 164.659 133.353 164.839 132.96C165.019 132.567 165.109 132.123 165.109 131.63C165.109 130.623 164.779 129.877 164.119 129.39C163.466 128.903 162.509 128.66 161.249 128.66H158.659V134.84H161.109ZM167.389 142H166.509C166.396 142 166.299 141.983 166.219 141.95C166.146 141.91 166.076 141.84 166.009 141.74L161.469 136C161.416 135.927 161.359 135.863 161.299 135.81C161.246 135.757 161.182 135.717 161.109 135.69C161.042 135.657 160.959 135.633 160.859 135.62C160.766 135.607 160.649 135.6 160.509 135.6H158.659V142H157.629V127.85H161.249C162.876 127.85 164.092 128.167 164.899 128.8C165.712 129.427 166.119 130.35 166.119 131.57C166.119 132.11 166.026 132.603 165.839 133.05C165.652 133.497 165.382 133.89 165.029 134.23C164.682 134.563 164.259 134.837 163.759 135.05C163.266 135.263 162.709 135.407 162.089 135.48C162.249 135.58 162.392 135.713 162.519 135.88L167.389 142ZM178.278 141.15L178.258 142H169.778V127.85H178.258V128.7H170.808V134.42H177.008V135.25H170.808V141.15H178.278ZM189.879 141.15L189.859 142H181.379V127.85H189.859V128.7H182.409V134.42H188.609V135.25H182.409V141.15H189.879ZM194.011 134.38H194.851C194.977 134.38 195.087 134.377 195.181 134.37C195.274 134.357 195.357 134.337 195.431 134.31C195.511 134.283 195.581 134.247 195.641 134.2C195.707 134.147 195.777 134.083 195.851 134.01L201.561 128.14C201.661 128.027 201.757 127.95 201.851 127.91C201.951 127.87 202.067 127.85 202.201 127.85H203.021L196.841 134.2C196.714 134.333 196.601 134.437 196.501 134.51C196.407 134.583 196.301 134.643 196.181 134.69C196.321 134.73 196.447 134.793 196.561 134.88C196.674 134.96 196.787 135.067 196.901 135.2L203.411 142H202.581C202.407 142 202.281 141.98 202.201 141.94C202.127 141.893 202.054 141.823 201.981 141.73L196.001 135.61C195.927 135.537 195.857 135.473 195.791 135.42C195.731 135.367 195.661 135.323 195.581 135.29C195.507 135.25 195.417 135.223 195.311 135.21C195.211 135.19 195.081 135.18 194.921 135.18H194.011V142H192.981V127.85H194.011V134.38ZM219.7 128.72H214.73V142H213.7V128.72H208.7V127.85H219.7V128.72ZM233.832 134.92C233.832 136.013 233.669 137.007 233.342 137.9C233.015 138.787 232.555 139.547 231.962 140.18C231.369 140.807 230.655 141.293 229.822 141.64C228.995 141.98 228.082 142.15 227.082 142.15C226.082 142.15 225.169 141.98 224.342 141.64C223.515 141.293 222.805 140.807 222.212 140.18C221.619 139.547 221.159 138.787 220.832 137.9C220.505 137.007 220.342 136.013 220.342 134.92C220.342 133.833 220.505 132.847 220.832 131.96C221.159 131.067 221.619 130.307 222.212 129.68C222.805 129.047 223.515 128.557 224.342 128.21C225.169 127.863 226.082 127.69 227.082 127.69C228.082 127.69 228.995 127.863 229.822 128.21C230.655 128.55 231.369 129.037 231.962 129.67C232.555 130.303 233.015 131.067 233.342 131.96C233.669 132.847 233.832 133.833 233.832 134.92ZM232.772 134.92C232.772 133.933 232.635 133.047 232.362 132.26C232.089 131.473 231.702 130.807 231.202 130.26C230.702 129.713 230.102 129.297 229.402 129.01C228.702 128.717 227.929 128.57 227.082 128.57C226.242 128.57 225.472 128.717 224.772 129.01C224.072 129.297 223.469 129.713 222.962 130.26C222.462 130.807 222.072 131.473 221.792 132.26C221.519 133.047 221.382 133.933 221.382 134.92C221.382 135.913 221.519 136.803 221.792 137.59C222.072 138.37 222.462 139.033 222.962 139.58C223.469 140.127 224.072 140.543 224.772 140.83C225.472 141.117 226.242 141.26 227.082 141.26C227.929 141.26 228.702 141.117 229.402 140.83C230.102 140.543 230.702 140.127 231.202 139.58C231.702 139.033 232.089 138.37 232.362 137.59C232.635 136.803 232.772 135.913 232.772 134.92ZM254.755 127.85L250.305 142H249.385L245.205 129.72C245.151 129.553 245.105 129.38 245.065 129.2C245.025 129.38 244.978 129.553 244.925 129.72L240.735 142H239.825L235.365 127.85H236.215C236.408 127.85 236.531 127.94 236.585 128.12L240.155 139.75C240.228 140.017 240.295 140.32 240.355 140.66C240.388 140.487 240.421 140.327 240.455 140.18C240.488 140.027 240.528 139.883 240.575 139.75L244.575 128.12C244.601 128.047 244.648 127.983 244.715 127.93C244.781 127.877 244.861 127.85 244.955 127.85H245.235C245.328 127.85 245.405 127.877 245.465 127.93C245.525 127.977 245.571 128.04 245.605 128.12L249.605 139.75C249.651 139.877 249.691 140.017 249.725 140.17C249.765 140.323 249.801 140.483 249.835 140.65C249.868 140.483 249.898 140.327 249.925 140.18C249.958 140.027 249.991 139.883 250.025 139.75L253.595 128.12C253.615 128.047 253.658 127.983 253.725 127.93C253.798 127.877 253.881 127.85 253.975 127.85H254.755ZM265.817 141.15L265.797 142H257.317V127.85H265.797V128.7H258.347V134.42H264.547V135.25H258.347V141.15H265.817ZM272.398 134.84C273.025 134.84 273.585 134.767 274.078 134.62C274.578 134.467 274.998 134.25 275.338 133.97C275.685 133.69 275.948 133.353 276.128 132.96C276.308 132.567 276.398 132.123 276.398 131.63C276.398 130.623 276.068 129.877 275.408 129.39C274.755 128.903 273.798 128.66 272.538 128.66H269.948V134.84H272.398ZM278.678 142H277.798C277.685 142 277.588 141.983 277.508 141.95C277.435 141.91 277.365 141.84 277.298 141.74L272.758 136C272.705 135.927 272.648 135.863 272.588 135.81C272.535 135.757 272.471 135.717 272.398 135.69C272.331 135.657 272.248 135.633 272.148 135.62C272.055 135.607 271.938 135.6 271.798 135.6H269.948V142H268.918V127.85H272.538C274.165 127.85 275.381 128.167 276.188 128.8C277.001 129.427 277.408 130.35 277.408 131.57C277.408 132.11 277.315 132.603 277.128 133.05C276.941 133.497 276.671 133.89 276.318 134.23C275.971 134.563 275.548 134.837 275.048 135.05C274.555 135.263 273.998 135.407 273.378 135.48C273.538 135.58 273.681 135.713 273.808 135.88L278.678 142Z" fill="#777777"/>
<path d="M188.641 175.96V178H177.121V175.96H181.726V161.305C181.726 160.865 181.741 160.42 181.771 159.97L177.946 163.255C177.816 163.365 177.686 163.435 177.556 163.465C177.426 163.485 177.306 163.485 177.196 163.465C177.086 163.445 176.981 163.405 176.881 163.345C176.791 163.285 176.721 163.22 176.671 163.15L175.831 161.995L182.236 156.46H184.411V175.96H188.641ZM207.273 167.26C207.273 169.14 207.068 170.77 206.658 172.15C206.258 173.52 205.708 174.655 205.008 175.555C204.308 176.455 203.478 177.125 202.518 177.565C201.568 178.005 200.548 178.225 199.458 178.225C198.358 178.225 197.333 178.005 196.383 177.565C195.443 177.125 194.623 176.455 193.923 175.555C193.223 174.655 192.673 173.52 192.273 172.15C191.873 170.77 191.673 169.14 191.673 167.26C191.673 165.38 191.873 163.75 192.273 162.37C192.673 160.99 193.223 159.85 193.923 158.95C194.623 158.04 195.443 157.365 196.383 156.925C197.333 156.485 198.358 156.265 199.458 156.265C200.548 156.265 201.568 156.485 202.518 156.925C203.478 157.365 204.308 158.04 205.008 158.95C205.708 159.85 206.258 160.99 206.658 162.37C207.068 163.75 207.273 165.38 207.273 167.26ZM204.498 167.26C204.498 165.62 204.358 164.245 204.078 163.135C203.808 162.015 203.438 161.115 202.968 160.435C202.508 159.755 201.973 159.27 201.363 158.98C200.753 158.68 200.118 158.53 199.458 158.53C198.798 158.53 198.163 158.68 197.553 158.98C196.943 159.27 196.408 159.755 195.948 160.435C195.488 161.115 195.118 162.015 194.838 163.135C194.568 164.245 194.433 165.62 194.433 167.26C194.433 168.9 194.568 170.275 194.838 171.385C195.118 172.495 195.488 173.39 195.948 174.07C196.408 174.75 196.943 175.24 197.553 175.54C198.163 175.83 198.798 175.975 199.458 175.975C200.118 175.975 200.753 175.83 201.363 175.54C201.973 175.24 202.508 174.75 202.968 174.07C203.438 173.39 203.808 172.495 204.078 171.385C204.358 170.275 204.498 168.9 204.498 167.26ZM224.916 163.67V178H223.216V167.47C223.216 167.33 223.219 167.18 223.226 167.02C223.239 166.86 223.252 166.697 223.266 166.53L218.346 175.49C218.192 175.79 217.959 175.94 217.646 175.94H217.366C217.052 175.94 216.819 175.79 216.666 175.49L211.646 166.49C211.686 166.843 211.706 167.17 211.706 167.47V178H210.006V163.67H211.436C211.609 163.67 211.742 163.687 211.836 163.72C211.929 163.753 212.019 163.847 212.106 164L217.056 172.82C217.136 172.98 217.212 173.147 217.286 173.32C217.366 173.493 217.439 173.67 217.506 173.85C217.572 173.67 217.642 173.493 217.716 173.32C217.789 173.14 217.869 172.97 217.956 172.81L222.816 164C222.896 163.847 222.982 163.753 223.076 163.72C223.176 163.687 223.312 163.67 223.486 163.67H224.916ZM230.52 178H228.58V163.67H230.52V178ZM245.795 163.67V178H244.825C244.672 178 244.542 177.973 244.435 177.92C244.335 177.867 244.235 177.777 244.135 177.65L235.845 166.85C235.859 167.017 235.869 167.18 235.875 167.34C235.882 167.5 235.885 167.65 235.885 167.79V178H234.185V163.67H235.185C235.272 163.67 235.345 163.677 235.405 163.69C235.465 163.697 235.519 163.713 235.565 163.74C235.612 163.76 235.659 163.793 235.705 163.84C235.752 163.88 235.802 163.933 235.855 164L244.145 174.79C244.132 174.617 244.119 174.45 244.105 174.29C244.099 174.123 244.095 173.967 244.095 173.82V163.67H245.795Z" fill="#071C35"/>
<defs>
<filter id="filter0_d_73_123" x="847.412" y="270" width="46.7522" height="108.588" filterUnits="userSpaceOnUse" color-interpolation-filters="sRGB">
<feFlood flood-opacity="0" result="BackgroundImageFix"/>
<feColorMatrix in="SourceAlpha" type="matrix" values="0 0 0 0 0 0 0 0 0 0 0 0 0 0 0 0 0 0 127 0" result="hardAlpha"/>
<feOffset dy="4"/>
<feGaussianBlur stdDeviation="2"/>
<feComposite in2="hardAlpha" operator="out"/>
<feColorMatrix type="matrix" values="0 0 0 0 0 0 0 0 0 0 0 0 0 0 0 0 0 0 0.25 0"/>
<feBlend mode="normal" in2="BackgroundImageFix" result="effect1_dropShadow_73_123"/>
<feBlend mode="normal" in="SourceGraphic" in2="effect1_dropShadow_73_123" result="shape"/>
</filter>
<filter id="filter1_d_73_123" x="393.122" y="280.5" width="73.3779" height="71.1963" filterUnits="userSpaceOnUse" color-interpolation-filters="sRGB">
<feFlood flood-opacity="0" result="BackgroundImageFix"/>
<feColorMatrix in="SourceAlpha" type="matrix" values="0 0 0 0 0 0 0 0 0 0 0 0 0 0 0 0 0 0 127 0" result="hardAlpha"/>
<feOffset dy="4"/>
<feGaussianBlur stdDeviation="2"/>
<feComposite in2="hardAlpha" operator="out"/>
<feColorMatrix type="matrix" values="0 0 0 0 0 0 0 0 0 0 0 0 0 0 0 0 0 0 0.25 0"/>
<feBlend mode="normal" in2="BackgroundImageFix" result="effect1_dropShadow_73_123"/>
<feBlend mode="normal" in="SourceGraphic" in2="effect1_dropShadow_73_123" result="shape"/>
</filter>
<filter id="filter2_d_73_123" x="179.586" y="10" width="60.5254" height="103.5" filterUnits="userSpaceOnUse" color-interpolation-filters="sRGB">
<feFlood flood-opacity="0" result="BackgroundImageFix"/>
<feColorMatrix in="SourceAlpha" type="matrix" values="0 0 0 0 0 0 0 0 0 0 0 0 0 0 0 0 0 0 127 0" result="hardAlpha"/>
<feOffset dy="4"/>
<feGaussianBlur stdDeviation="2"/>
<feComposite in2="hardAlpha" operator="out"/>
<feColorMatrix type="matrix" values="0 0 0 0 0 0 0 0 0 0 0 0 0 0 0 0 0 0 0.25 0"/>
<feBlend mode="normal" in2="BackgroundImageFix" result="effect1_dropShadow_73_123"/>
<feBlend mode="normal" in="SourceGraphic" in2="effect1_dropShadow_73_123" result="shape"/>
</filter>
</defs>
</svg>
